<mxfile host="app.diagrams.net" modified="2023-11-14T08:39:02.299Z" agent="Mozilla/5.0 (Macintosh; Intel Mac OS X 10_15_7) AppleWebKit/537.36 (KHTML, like Gecko) Chrome/118.0.0.0 Safari/537.36" etag="dqvTe2wfCVpMTL1kw0Pg" version="22.1.0" type="github">
  <diagram name="Page-1" id="NQk4FHPxa6d9a9Xzu11Q">
    <mxGraphModel dx="1138" dy="594" grid="1" gridSize="10" guides="1" tooltips="1" connect="1" arrows="1" fold="1" page="1" pageScale="1" pageWidth="850" pageHeight="1100" math="0" shadow="0">
      <root>
        <mxCell id="0" />
        <mxCell id="1" parent="0" />
        <mxCell id="V_vyaaq5Ykr70dIOh13H-1" value="开始" style="ellipse;whiteSpace=wrap;html=1;aspect=fixed;" vertex="1" parent="1">
          <mxGeometry x="320" y="40" width="40" height="40" as="geometry" />
        </mxCell>
        <mxCell id="V_vyaaq5Ykr70dIOh13H-5" value="" style="edgeStyle=orthogonalEdgeStyle;rounded=0;orthogonalLoop=1;jettySize=auto;html=1;" edge="1" parent="1" source="V_vyaaq5Ykr70dIOh13H-2" target="V_vyaaq5Ykr70dIOh13H-4">
          <mxGeometry relative="1" as="geometry" />
        </mxCell>
        <mxCell id="V_vyaaq5Ykr70dIOh13H-2" value="待产品确认" style="rounded=1;whiteSpace=wrap;html=1;" vertex="1" parent="1">
          <mxGeometry x="295" y="220" width="90" height="40" as="geometry" />
        </mxCell>
        <mxCell id="V_vyaaq5Ykr70dIOh13H-8" value="" style="edgeStyle=orthogonalEdgeStyle;rounded=0;orthogonalLoop=1;jettySize=auto;html=1;" edge="1" parent="1" source="V_vyaaq5Ykr70dIOh13H-4" target="V_vyaaq5Ykr70dIOh13H-7">
          <mxGeometry relative="1" as="geometry" />
        </mxCell>
        <mxCell id="V_vyaaq5Ykr70dIOh13H-11" value="" style="edgeStyle=orthogonalEdgeStyle;rounded=0;orthogonalLoop=1;jettySize=auto;html=1;" edge="1" parent="1" source="V_vyaaq5Ykr70dIOh13H-4" target="V_vyaaq5Ykr70dIOh13H-10">
          <mxGeometry relative="1" as="geometry" />
        </mxCell>
        <mxCell id="V_vyaaq5Ykr70dIOh13H-4" value="产品确评估需求是否&lt;br&gt;有效" style="rhombus;whiteSpace=wrap;html=1;rounded=1;" vertex="1" parent="1">
          <mxGeometry x="280" y="320" width="105" height="90" as="geometry" />
        </mxCell>
        <mxCell id="V_vyaaq5Ykr70dIOh13H-6" value="需求人&lt;br&gt;提交需求" style="rounded=1;whiteSpace=wrap;html=1;" vertex="1" parent="1">
          <mxGeometry x="300" y="130" width="85" height="40" as="geometry" />
        </mxCell>
        <mxCell id="V_vyaaq5Ykr70dIOh13H-15" value="" style="edgeStyle=orthogonalEdgeStyle;rounded=0;orthogonalLoop=1;jettySize=auto;html=1;" edge="1" parent="1" source="V_vyaaq5Ykr70dIOh13H-7" target="V_vyaaq5Ykr70dIOh13H-14">
          <mxGeometry relative="1" as="geometry" />
        </mxCell>
        <mxCell id="V_vyaaq5Ykr70dIOh13H-7" value="产品内部评估工作量&amp;amp;影响范围" style="rounded=1;whiteSpace=wrap;html=1;" vertex="1" parent="1">
          <mxGeometry x="265" y="470" width="120" height="60" as="geometry" />
        </mxCell>
        <mxCell id="V_vyaaq5Ykr70dIOh13H-9" value="是" style="rounded=0;whiteSpace=wrap;html=1;" vertex="1" parent="1">
          <mxGeometry x="350" y="410" width="60" height="20" as="geometry" />
        </mxCell>
        <mxCell id="V_vyaaq5Ykr70dIOh13H-10" value="拒绝" style="whiteSpace=wrap;html=1;rounded=1;" vertex="1" parent="1">
          <mxGeometry x="520" y="335" width="60" height="50" as="geometry" />
        </mxCell>
        <mxCell id="V_vyaaq5Ykr70dIOh13H-12" value="否" style="rounded=0;whiteSpace=wrap;html=1;" vertex="1" parent="1">
          <mxGeometry x="420" y="320" width="60" height="20" as="geometry" />
        </mxCell>
        <mxCell id="V_vyaaq5Ykr70dIOh13H-17" value="" style="edgeStyle=orthogonalEdgeStyle;rounded=0;orthogonalLoop=1;jettySize=auto;html=1;" edge="1" parent="1" source="V_vyaaq5Ykr70dIOh13H-14" target="V_vyaaq5Ykr70dIOh13H-16">
          <mxGeometry relative="1" as="geometry" />
        </mxCell>
        <mxCell id="V_vyaaq5Ykr70dIOh13H-20" value="" style="edgeStyle=orthogonalEdgeStyle;rounded=0;orthogonalLoop=1;jettySize=auto;html=1;" edge="1" parent="1" source="V_vyaaq5Ykr70dIOh13H-14" target="V_vyaaq5Ykr70dIOh13H-19">
          <mxGeometry relative="1" as="geometry" />
        </mxCell>
        <mxCell id="V_vyaaq5Ykr70dIOh13H-14" value="是否可排期" style="rhombus;whiteSpace=wrap;html=1;rounded=1;" vertex="1" parent="1">
          <mxGeometry x="285" y="600" width="80" height="80" as="geometry" />
        </mxCell>
        <mxCell id="V_vyaaq5Ykr70dIOh13H-16" value="排期待定" style="whiteSpace=wrap;html=1;rounded=1;" vertex="1" parent="1">
          <mxGeometry x="520" y="610" width="120" height="60" as="geometry" />
        </mxCell>
        <mxCell id="V_vyaaq5Ykr70dIOh13H-18" value="否" style="rounded=0;whiteSpace=wrap;html=1;" vertex="1" parent="1">
          <mxGeometry x="395" y="610" width="60" height="20" as="geometry" />
        </mxCell>
        <mxCell id="V_vyaaq5Ykr70dIOh13H-28" value="" style="edgeStyle=orthogonalEdgeStyle;rounded=0;orthogonalLoop=1;jettySize=auto;html=1;" edge="1" parent="1" source="V_vyaaq5Ykr70dIOh13H-19" target="V_vyaaq5Ykr70dIOh13H-27">
          <mxGeometry relative="1" as="geometry" />
        </mxCell>
        <mxCell id="V_vyaaq5Ykr70dIOh13H-19" value="确定排期" style="rounded=1;whiteSpace=wrap;html=1;" vertex="1" parent="1">
          <mxGeometry x="265" y="720" width="120" height="60" as="geometry" />
        </mxCell>
        <mxCell id="V_vyaaq5Ykr70dIOh13H-23" value="是" style="rounded=0;whiteSpace=wrap;html=1;" vertex="1" parent="1">
          <mxGeometry x="335" y="680" width="60" height="20" as="geometry" />
        </mxCell>
        <mxCell id="V_vyaaq5Ykr70dIOh13H-30" value="" style="edgeStyle=orthogonalEdgeStyle;rounded=0;orthogonalLoop=1;jettySize=auto;html=1;" edge="1" parent="1" source="V_vyaaq5Ykr70dIOh13H-27" target="V_vyaaq5Ykr70dIOh13H-29">
          <mxGeometry relative="1" as="geometry" />
        </mxCell>
        <mxCell id="V_vyaaq5Ykr70dIOh13H-32" value="" style="edgeStyle=orthogonalEdgeStyle;rounded=0;orthogonalLoop=1;jettySize=auto;html=1;" edge="1" parent="1" source="V_vyaaq5Ykr70dIOh13H-27" target="V_vyaaq5Ykr70dIOh13H-31">
          <mxGeometry relative="1" as="geometry" />
        </mxCell>
        <mxCell id="V_vyaaq5Ykr70dIOh13H-27" value="是否如期开发" style="rhombus;whiteSpace=wrap;html=1;rounded=1;" vertex="1" parent="1">
          <mxGeometry x="285" y="850" width="80" height="80" as="geometry" />
        </mxCell>
        <mxCell id="V_vyaaq5Ykr70dIOh13H-29" value="重新确定排期" style="rounded=1;whiteSpace=wrap;html=1;" vertex="1" parent="1">
          <mxGeometry x="550" y="860" width="120" height="60" as="geometry" />
        </mxCell>
        <mxCell id="V_vyaaq5Ykr70dIOh13H-36" value="" style="edgeStyle=orthogonalEdgeStyle;rounded=0;orthogonalLoop=1;jettySize=auto;html=1;" edge="1" parent="1" source="V_vyaaq5Ykr70dIOh13H-31" target="V_vyaaq5Ykr70dIOh13H-35">
          <mxGeometry relative="1" as="geometry" />
        </mxCell>
        <mxCell id="V_vyaaq5Ykr70dIOh13H-31" value="开发完成，产品发版" style="rounded=1;whiteSpace=wrap;html=1;" vertex="1" parent="1">
          <mxGeometry x="265" y="1020" width="120" height="60" as="geometry" />
        </mxCell>
        <mxCell id="V_vyaaq5Ykr70dIOh13H-33" value="否" style="rounded=0;whiteSpace=wrap;html=1;" vertex="1" parent="1">
          <mxGeometry x="420" y="860" width="60" height="20" as="geometry" />
        </mxCell>
        <mxCell id="V_vyaaq5Ykr70dIOh13H-34" value="是" style="rounded=0;whiteSpace=wrap;html=1;" vertex="1" parent="1">
          <mxGeometry x="335" y="960" width="60" height="20" as="geometry" />
        </mxCell>
        <mxCell id="V_vyaaq5Ykr70dIOh13H-35" value="" style="rounded=1;whiteSpace=wrap;html=1;" vertex="1" parent="1">
          <mxGeometry x="265" y="1160" width="120" height="60" as="geometry" />
        </mxCell>
      </root>
    </mxGraphModel>
  </diagram>
</mxfile>
